<?xml version="1.0" encoding="UTF-8" standalone="no"?>
<svg width="101px" height="66px" viewBox="0 0 101 66" version="1.1" xmlns="http://www.w3.org/2000/svg" xmlns:xlink="http://www.w3.org/1999/xlink" xmlns:sketch="http://www.bohemiancoding.com/sketch/ns">
    <!-- Generator: Sketch 3.3.3 (12081) - http://www.bohemiancoding.com/sketch -->
    <title>Slice 1</title>
    <desc>Created with Sketch.</desc>
    <defs></defs>
    <g id="Page-1" stroke="none" stroke-width="1" fill="none" fill-rule="evenodd" sketch:type="MSPage">
        <g id="noun_18693_cc" sketch:type="MSLayerGroup" fill="#000000">
            <path d="M19.052,13.137 C23.041,14.158 25.585,12.795 25.585,12.795 C25.585,12.795 47.483,3.123 50.793,1.34 C54.104,-0.442 57.922,1.34 57.922,1.34 C57.922,1.34 72.267,9.23 74.044,10.251 C75.831,11.272 77.862,15.344 75.743,19.503 C73.624,23.658 67.345,20.86 67.345,20.86 L53.337,13.053 C44.085,15.938 11.156,41.484 11.156,41.484 L0.293,39.107 C-1.406,19.25 5.303,10.251 5.303,10.251 C5.303,10.251 15.063,12.117 19.052,13.137 L19.052,13.137 Z M95.177,10.759 L85.588,13.137 C85.588,13.137 81.262,13.733 79.738,13.137 C79.738,13.137 81.174,18.371 78.8,21.017 C76.426,23.663 74.64,25.104 70.821,25.104 C67.002,25.104 65.137,23.493 63.693,22.56 C62.248,21.627 53.59,16.701 53.59,16.701 C53.59,16.701 41.625,21.623 13.96,43.78 C13.96,43.78 10.562,45.987 12.769,49.464 C12.769,49.464 14.805,52.345 18.882,49.464 C22.954,46.573 31.694,40.636 31.694,40.636 C31.694,40.636 32.632,40.04 33.222,40.636 C33.818,41.232 33.481,41.574 33.056,41.993 C32.631,42.412 20.918,50.743 20.918,50.743 C20.918,50.743 19.39,52.52 21.172,54.551 C22.954,56.592 23.975,56.758 26.348,55.147 C28.725,53.536 39.081,45.48 39.081,45.48 C39.081,45.48 40.438,44.63 41.117,45.558 C41.796,46.496 41.625,46.749 41.117,47.257 C40.609,47.765 29.491,55.83 29.491,55.83 C29.491,55.83 27.709,57.607 29.32,59.394 C30.931,61.181 32.801,61.425 35.008,59.814 C37.215,58.203 42.898,53.876 42.898,53.876 C42.898,53.876 44.002,52.773 45.105,53.622 C46.209,54.472 44.68,55.741 44.68,55.741 L38.333,60.321 C38.333,60.321 36.619,61.854 39.163,63.807 C41.712,65.76 41.795,65.252 44.002,63.807 C46.209,62.362 49.265,59.989 49.265,59.989 C49.265,59.989 44.681,50.82 50.622,46.826 C50.622,46.826 53,45.137 55.881,45.049 C55.881,45.049 55.881,40.293 60.725,38.853 C65.558,37.408 67.257,40.04 67.257,40.04 C67.257,40.04 68.79,37.76 71.837,37.921 C74.894,38.087 76.651,39.278 76.651,39.278 C76.651,39.278 78.126,37.154 81.602,37.325 C85.078,37.496 88.134,41.905 88.134,41.905 L99.765,39.615 C99.767,39.615 101.632,21.54 95.177,10.759 L95.177,10.759 Z M85.334,46.153 C85.334,46.153 85.168,42.335 83.469,41.485 C81.77,40.635 78.039,40.128 77.19,43.819 L76.653,43.946 C76.653,43.946 75.657,41.485 71.926,41.485 C71.926,41.485 68.615,41.231 68.703,45.137 L67.765,45.215 C67.765,45.215 66.066,40.811 62.248,42.422 C58.43,44.033 58.596,46.748 59.963,49.805 C59.963,49.805 59.299,50.313 59.074,50.313 C58.859,50.313 57.072,47.256 54.357,48.614 C54.357,48.614 50.622,49.044 52.238,55.83 C53.849,62.617 53.761,61.601 53.761,61.601 C53.761,61.601 54.699,65.761 58.351,64.57 C61.994,63.379 61.486,60.41 61.32,59.56 C61.32,59.56 65.303,62.539 67.432,61.689 C69.551,60.839 70.567,59.052 70.225,55.488 C70.225,55.488 71.924,58.799 74.981,57.861 C78.038,56.933 77.784,53.877 77.95,53.458 C77.95,53.458 79.054,55.83 81.602,55.068 C84.143,54.297 84.738,51.075 85.334,46.153 L85.334,46.153 Z" id="Shape" sketch:type="MSShapeGroup"></path>
        </g>
    </g>
</svg>