<svg xmlns="http://www.w3.org/2000/svg" xmlns:xlink="http://www.w3.org/1999/xlink" version="1.1" x="0px" y="0px" viewBox="0 0 100 125" enable-background="new 0 0 100 100" xml:space="preserve"><g><path d="M50.667,40.263c-4.453,0-8.075-3.622-8.075-8.075s3.622-8.075,8.075-8.075c4.453,0,8.075,3.622,8.075,8.075   S55.119,40.263,50.667,40.263z M50.667,25.585c-3.641,0-6.603,2.962-6.603,6.603s2.962,6.603,6.603,6.603s6.603-2.962,6.603-6.603   S54.308,25.585,50.667,25.585z"/><path d="M57.373,83.821H43.968c-0.793,0-1.473-0.877-1.473-1.595V64.982c-1.028-1.051-2.515-2.745-2.515-3.739V45.415   c0-1.641,1.446-3.558,5.522-3.558l9.955,0c3.816,0,5.874,1.834,5.874,3.559l0.023,15.828c0,0.996-1.501,2.69-2.539,3.741v17.241   C58.815,82.948,58.172,83.821,57.373,83.821z M44.066,82.348h13.202c0.034-0.04,0.069-0.102,0.075-0.137l-0.001-17.839l0.218-0.216   c1.178-1.168,2.263-2.539,2.322-2.933l-0.024-15.808c0-0.655-1.109-2.088-4.401-2.088l-9.955,0c-2.797,0-4.049,1.048-4.049,2.086   v15.829c0.056,0.375,1.131,1.746,2.3,2.915l0.216,0.216v17.851C43.976,82.242,44.024,82.307,44.066,82.348z"/><path d="M33.381,35.222c-4.453,0-8.075-3.622-8.075-8.075s3.622-8.075,8.075-8.075c4.453,0,8.075,3.622,8.075,8.075   S37.833,35.222,33.381,35.222z M33.381,20.543c-3.641,0-6.603,2.962-6.603,6.603s2.962,6.603,6.603,6.603   c3.641,0,6.603-2.962,6.603-6.603S37.022,20.543,33.381,20.543z"/><path d="M28.216,38.287l11.665,0v-1.472l-11.665,0c-4.075,0-5.522,1.917-5.522,3.559v15.829c0,0.994,1.488,2.687,2.515,3.739   v17.244c0,0.718,0.68,1.595,1.473,1.595h13.194l0.004-1.472h-13.1c-0.042-0.041-0.09-0.106-0.098-0.123V59.332l-0.216-0.216   c-1.169-1.169-2.244-2.54-2.3-2.915V40.373C24.167,39.335,25.419,38.287,28.216,38.287z"/><path d="M15.753,30.414c-4.453,0-8.075-3.622-8.075-8.075s3.622-8.075,8.075-8.075c4.453,0,8.075,3.622,8.075,8.075   S20.206,30.414,15.753,30.414z M15.753,15.736c-3.641,0-6.603,2.962-6.603,6.603s2.962,6.603,6.603,6.603s6.603-2.962,6.603-6.603   S19.394,15.736,15.753,15.736z"/><path d="M10.588,33.479l11.665,0v-1.472l-11.665,0c-4.075,0-5.522,1.917-5.522,3.559v15.829c0,0.994,1.488,2.687,2.515,3.739   v17.244c0,0.718,0.68,1.595,1.473,1.595h13.194l0.004-1.472h-13.1c-0.042-0.041-0.09-0.106-0.098-0.123V54.525l-0.216-0.216   c-1.169-1.169-2.244-2.54-2.3-2.915V35.565C6.539,34.527,7.791,33.479,10.588,33.479z"/><path d="M59.427,27.146c0-4.453,3.623-8.075,8.075-8.075c4.453,0,8.075,3.622,8.075,8.075s-3.622,8.075-8.075,8.075   C63.05,35.222,59.427,31.599,59.427,27.146z M60.899,27.146c0,3.641,2.962,6.603,6.603,6.603c3.641,0,6.603-2.962,6.603-6.603   s-2.962-6.603-6.603-6.603C63.861,20.543,60.899,23.505,60.899,27.146z"/><path d="M72.667,38.287l-11.665,0v-1.472l11.665,0c4.075,0,5.522,1.917,5.522,3.559v15.829c0,0.994-1.488,2.687-2.515,3.739v17.244   c0,0.718-0.68,1.595-1.473,1.595H61.007l-0.004-1.472h13.1c0.042-0.041,0.09-0.106,0.098-0.123V59.332l0.216-0.216   c1.169-1.169,2.244-2.54,2.3-2.915V40.373C76.716,39.335,75.464,38.287,72.667,38.287z"/><path d="M76.253,22.339c0-4.453,3.623-8.075,8.075-8.075c4.453,0,8.075,3.622,8.075,8.075s-3.622,8.075-8.075,8.075   C79.876,30.414,76.253,26.792,76.253,22.339z M77.726,22.339c0,3.641,2.962,6.603,6.603,6.603c3.641,0,6.603-2.962,6.603-6.603   s-2.962-6.603-6.603-6.603C80.688,15.736,77.726,18.698,77.726,22.339z"/><path d="M89.494,33.479l-11.665,0v-1.472l11.665,0c4.075,0,5.522,1.917,5.522,3.559v15.829c0,0.994-1.488,2.687-2.515,3.739v17.244   c0,0.718-0.68,1.595-1.473,1.595H77.833l-0.004-1.472h13.1c0.042-0.041,0.09-0.106,0.098-0.123V54.525l0.216-0.216   c1.169-1.169,2.244-2.54,2.3-2.915V35.565C93.543,34.527,92.291,33.479,89.494,33.479z"/></g><text x="0" y="115" fill="#000000" font-size="5px" font-weight="bold" font-family="'Helvetica Neue', Helvetica, Arial-Unicode, Arial, Sans-serif">Created by Ben Peetermans</text><text x="0" y="120" fill="#000000" font-size="5px" font-weight="bold" font-family="'Helvetica Neue', Helvetica, Arial-Unicode, Arial, Sans-serif">from the Noun Project</text></svg>