<svg xmlns="http://www.w3.org/2000/svg" xmlns:xlink="http://www.w3.org/1999/xlink" xmlns:a="http://ns.adobe.com/AdobeSVGViewerExtensions/3.0/" version="1.1" x="0px" y="0px" viewBox="-3.5 -16.25 100 125" enable-background="new -3.5 -16.25 100 100" xml:space="preserve"><polygon points="14.702,0 0,0 0,2.976 0,9.682 0,50.909 1.225,50.909 1.225,9.682 14.702,9.682 "/><path d="M36.861,25.671V15.319h1.34v-2.541H3.252v2.541h2.163v35.59h6.294h1.806h15.791h1.242h3.454h2.858H91.78V28.213h0.956  v-2.542H36.861z M21.782,18.744h5.157v4.629h-5.157V18.744z M15.164,18.744h5.158v4.629h-5.158V18.744z M8.547,23.373v-4.629h5.157  v4.629H8.547z M13.516,49.79V34.196h15.791V49.79H13.516z M33.557,23.373h-5.158v-4.629h5.158V23.373z M51.251,43.452h-13.05v-9.256  h13.05V43.452z M71.591,43.452H54.736v-9.256h16.854V43.452z M88.097,43.452H75.046v-9.256h13.051V43.452z"/><text x="-3.5" y="98.75" fill="#000000" font-size="5px" font-weight="bold" font-family="'Helvetica Neue', Helvetica, Arial-Unicode, Arial, Sans-serif">Created by Mike Wirth</text><text x="-3.5" y="103.75" fill="#000000" font-size="5px" font-weight="bold" font-family="'Helvetica Neue', Helvetica, Arial-Unicode, Arial, Sans-serif">from the Noun Project</text></svg>