<?xml version="1.0" standalone="no"?>
<!DOCTYPE svg PUBLIC "-//W3C//DTD SVG 20010904//EN"
 "http://www.w3.org/TR/2001/REC-SVG-20010904/DTD/svg10.dtd">
<svg version="1.0" xmlns="http://www.w3.org/2000/svg"
 width="300.000000pt" height="300.000000pt" viewBox="0 0 300.000000 300.000000"
 preserveAspectRatio="xMidYMid meet">
<metadata>
Created by potrace 1.12, written by Peter Selinger 2001-2015
</metadata>
<g transform="translate(0.000000,300.000000) scale(0.100000,-0.100000)"
fill="#000000" stroke="none">
<path d="M1470 2992 c0 -6 -8 -13 -18 -16 -10 -4 -27 -14 -38 -24 -11 -9 -27
-21 -36 -27 -9 -5 -108 -75 -219 -155 -112 -80 -213 -152 -225 -160 -90 -61
-220 -155 -222 -162 -2 -4 -8 -8 -12 -8 -7 0 -82 -52 -155 -107 -6 -5 -39 -28
-75 -53 -36 -24 -66 -48 -68 -52 -2 -4 -10 -8 -17 -8 -7 0 -15 -3 -17 -8 -1
-4 -73 -56 -158 -116 -218 -153 -229 -165 -194 -211 14 -18 27 -20 147 -20
l132 0 0 -780 0 -780 -78 -1 c-51 0 -82 -5 -87 -13 -11 -18 -10 -253 1 -273 9
-17 85 -18 1382 -18 1055 0 1376 3 1385 12 8 8 12 55 12 143 0 154 1 153 -111
150 l-67 -2 2 780 1 780 110 2 c140 3 132 1 145 26 22 40 -5 69 -156 174 -80
55 -150 105 -157 110 -7 6 -158 114 -336 240 -177 127 -342 244 -365 260 -23
17 -71 50 -107 75 -35 24 -68 48 -74 52 -5 5 -67 49 -136 98 -118 83 -189 118
-189 92z m926 -1135 c12 -12 11 -1546 -1 -1550 -5 -2 -404 -3 -885 -3 l-875 1
-3 770 c-1 424 0 775 2 780 4 12 1751 13 1762 2z"/>
<path d="M1135 1632 c-77 -8 -198 -62 -280 -125 -22 -17 -42 -32 -44 -34 -7
-5 -7 -953 0 -953 3 0 14 8 25 18 35 32 114 83 167 107 86 39 176 50 262 29
49 -11 163 -62 193 -86 9 -8 12 86 12 465 0 372 -3 477 -13 485 -7 6 -38 24
-68 40 -78 41 -178 62 -254 54z"/>
<path d="M1793 1628 c-60 -9 -137 -38 -191 -72 l-39 -24 1 -470 c1 -259 4
-474 9 -478 4 -4 7 -2 7 4 0 7 5 12 12 12 6 0 19 6 27 14 9 7 47 26 86 41 154
61 333 20 480 -109 17 -14 32 -26 35 -26 3 0 5 214 5 475 0 261 -2 475 -5 475
-3 0 -18 12 -35 28 -108 98 -262 150 -392 130z"/>
</g>
</svg>
