<?xml version="1.0" encoding="UTF-8" standalone="no"?>
<svg width="79px" height="94px" viewBox="0 0 79 94" version="1.1" xmlns="http://www.w3.org/2000/svg" xmlns:xlink="http://www.w3.org/1999/xlink" xmlns:sketch="http://www.bohemiancoding.com/sketch/ns">
    <!-- Generator: Sketch 3.3.3 (12081) - http://www.bohemiancoding.com/sketch -->
    <title>noun_9477</title>
    <desc>Created with Sketch.</desc>
    <defs></defs>
    <g id="Page-1" stroke="none" stroke-width="1" fill="none" fill-rule="evenodd" sketch:type="MSPage">
        <g id="noun_9477" sketch:type="MSLayerGroup" fill="#000000">
            <g id="Group" transform="translate(0.000000, 6.000000)" sketch:type="MSShapeGroup">
                <path d="M19.367,25.304 C22.461,25.304 25.286,24.182 27.473,22.331 C24.404,18.99 22.501,14.562 22.501,9.666 C22.501,6.676 23.217,3.86 24.459,1.349 C22.901,0.659 21.182,0.266 19.367,0.266 C12.436,0.266 6.82,5.87 6.82,12.786 C6.82,19.7 12.437,25.304 19.367,25.304 L19.367,25.304 Z" id="Shape"></path>
                <path d="M60.101,9.667 C60.101,14.563 58.198,18.991 55.127,22.332 C57.315,24.183 60.141,25.305 63.234,25.305 C70.163,25.305 75.779,19.701 75.779,12.787 C75.779,5.872 70.163,0.267 63.234,0.267 C61.42,0.267 59.7,0.66 58.142,1.351 C59.385,3.86 60.101,6.676 60.101,9.667 L60.101,9.667 Z" id="Shape"></path>
                <path d="M19.367,56.667 L16.24,28.513 C9.086,28.886 0.567,31.6 0.567,31.6 L3.7,53.533 L9.967,59.8 L9.967,78.6 C9.967,78.6 14.084,81.734 17.8,81.734 C21.47,81.734 25.633,78.6 25.633,78.6 L25.633,60.844 L19.367,56.667 L19.367,56.667 Z" id="Shape"></path>
                <path d="M66.324,28.851 L63.234,56.667 L53.834,62.934 L53.834,78.6 C53.834,78.6 57.951,81.734 61.667,81.734 C65.338,81.734 69.501,78.6 69.501,78.6 L69.501,59.8 L76.438,54.139 L78.9,32.063 C78.9,32.063 72.609,29.775 66.324,28.851 L66.324,28.851 Z" id="Shape"></path>
            </g>
            <path d="M19.367,37.6 C19.367,37.6 31.871,34.467 41.301,34.467 C50.672,34.467 63.235,37.6 63.235,37.6 L60.101,62.667 L50.702,68.934 L50.702,90.867 C50.702,90.867 45.973,94.001 41.302,94.001 C36.573,94.001 31.902,90.867 31.902,90.867 L31.902,68.934 L22.502,62.667 L19.367,37.6 L19.367,37.6 Z" id="Shape" sketch:type="MSShapeGroup"></path>
            <path d="M41.301,0 C49.952,0 56.968,7.013 56.968,15.667 C56.968,24.319 49.952,31.334 41.301,31.334 C32.648,31.334 25.634,24.319 25.634,15.667 C25.634,7.013 32.647,0 41.301,0 L41.301,0 Z" id="Shape" sketch:type="MSShapeGroup"></path>
        </g>
    </g>
</svg>